<?xml version="1.0" encoding="utf-8"?>
<!-- Generator: Adobe Illustrator 26.0.2, SVG Export Plug-In . SVG Version: 6.00 Build 0)  -->
<svg version="1.1" id="レイヤー_1" xmlns="http://www.w3.org/2000/svg" xmlns:xlink="http://www.w3.org/1999/xlink" x="0px"
	 y="0px" viewBox="0 0 1067.8 1231.2" style="enable-background:new 0 0 1067.8 1231.2;" xml:space="preserve">
<style type="text/css">
	.st0{fill:#FFEFB8;}
	.st1{clip-path:url(#SVGID_00000145771971384331743900000011058639330377504647_);}
	.st2{opacity:0.82;fill:#E6ABA4;enable-background:new    ;}
	.st3{fill:#E6ABA4;}
	.st4{clip-path:url(#SVGID_00000114767098831775767360000016943341960348317872_);}
	.st5{fill:#E6ABA4;enable-background:new    ;}
	.st6{fill:#C9F49A;}
	.st7{clip-path:url(#SVGID_00000080923881077526271970000011591949583259645599_);}
	.st8{clip-path:url(#SVGID_00000121989300100244239170000013334614409577654207_);}
	.st9{fill:#D1FFC4;}
	.st10{fill:#FFB48F;}
	.st11{fill:#808080;stroke:#808080;stroke-miterlimit:10;}
	.st12{fill:#808080;}
	.st13{fill:none;}
	.st14{enable-background:new    ;}
	.st15{fill:none;stroke:#808080;stroke-miterlimit:10;}
	.st16{fill:none;stroke:#808080;stroke-width:16;stroke-miterlimit:10;}
	.st17{clip-path:url(#SVGID_00000059274797867086218730000014575507051772123580_);}
	.st18{fill:none;stroke:#808080;stroke-width:16;stroke-miterlimit:10;enable-background:new    ;}
	.st19{clip-path:url(#SVGID_00000142889434060906387490000014392786162117313435_);}
	.st20{clip-path:url(#SVGID_00000179605968528290194740000011356004100766608313_);}
	.st21{clip-path:url(#SVGID_00000150068873492891091110000014881780441473247884_);}
	.st22{clip-path:url(#SVGID_00000028290948794092325180000010006881924046572457_);}
	.st23{clip-path:url(#SVGID_00000129926574790001013380000018424420753055661229_);}
	.st24{clip-path:url(#SVGID_00000057131909355146904150000013033581484716972952_);}
	.st25{clip-path:url(#SVGID_00000129928226761314159740000000432467623066614673_);}
	.st26{clip-path:url(#SVGID_00000145059964370566600360000010417824185375922111_);}
	.st27{clip-path:url(#SVGID_00000057105867768342931980000007766925008127181977_);}
	.st28{clip-path:url(#SVGID_00000138556333722451922410000014217229924325630095_);}
	.st29{clip-path:url(#SVGID_00000171720425437616564930000012816627247887225247_);}
	.st30{display:none;}
	.st31{display:inline;}
	.st32{clip-path:url(#SVGID_00000030457453092047514310000008237175432746483888_);}
	.st33{clip-path:url(#SVGID_00000107577520825738912600000016628101459985677198_);}
	.st34{clip-path:url(#SVGID_00000087388028638562868740000017978921575105591226_);}
	.st35{clip-path:url(#SVGID_00000122707276700796532570000002996064065648274589_);}
	.st36{fill:#FFFFFF;stroke:#FFFFFF;stroke-miterlimit:10;}
	.st37{fill:none;stroke:#FFFFFF;stroke-width:16;stroke-miterlimit:10;}
	.st38{clip-path:url(#SVGID_00000036951225780534358580000010912391293225915782_);}
	.st39{fill:none;stroke:#FFFFFF;stroke-width:16;stroke-miterlimit:10;enable-background:new    ;}
	.st40{clip-path:url(#SVGID_00000090259136838386352770000010830354799731838878_);}
	.st41{clip-path:url(#SVGID_00000127035770034185504910000012396382862650733500_);}
	.st42{clip-path:url(#SVGID_00000181075276817956225820000008181191759903820675_);}
</style>
<g id="アウトライン済色あり">
	<g id="color">
		<g id="ヨモギ以外の色">
			<path id="止まり木" class="st0" d="M21.7,932.3h1027.9c5.5,0,10,4.5,10,10v77.7c0,5.5-4.5,10-10,10H21.7c-5.5,0-10-4.5-10-10
				v-77.7C11.7,936.8,16.2,932.3,21.7,932.3z"/>
			<g>
				<defs>
					<polygon id="SVGID_1_" points="12.1,48.3 12.1,48.3 394.6,48.3 394.6,720.2 12.1,720.2 					"/>
				</defs>
				<clipPath id="SVGID_00000099637645333504829140000012409521017215662215_">
					<use xlink:href="#SVGID_1_"  style="overflow:visible;"/>
				</clipPath>
				<g style="clip-path:url(#SVGID_00000099637645333504829140000012409521017215662215_);">
					<circle class="st2" cx="347.6" cy="95.3" r="47"/>
					<circle class="st3" cx="114.5" cy="353.8" r="47"/>
					<circle class="st3" cx="59.1" cy="673.2" r="47"/>
				</g>
			</g>
			<g>
				<defs>
					<polygon id="SVGID_00000057129490838140856630000010644577037164218296_" points="1049.9,48.3 1049.9,48.3 667.4,48.3 
						667.4,720.2 1049.9,720.2 					"/>
				</defs>
				<clipPath id="SVGID_00000134969812575253409600000002427544508243149204_">
					<use xlink:href="#SVGID_00000057129490838140856630000010644577037164218296_"  style="overflow:visible;"/>
				</clipPath>
				<g style="clip-path:url(#SVGID_00000134969812575253409600000002427544508243149204_);">
					<circle class="st5" cx="714.4" cy="95.3" r="47"/>
					<circle class="st3" cx="947.5" cy="353.8" r="47"/>
					
						<ellipse transform="matrix(0.1602 -0.9871 0.9871 0.1602 177.8091 1555.3296)" class="st3" cx="1002.9" cy="673.2" rx="47" ry="47"/>
				</g>
			</g>
			<g id="大きい丸">
				<circle class="st6" cx="534.6" cy="75.2" r="67.2"/>
				<g>
					<defs>
						<polygon id="SVGID_00000150074926977830466010000004479391021909700283_" points="8,142.4 8,142.4 272.4,142.4 272.4,907.8 
							8,907.8 						"/>
					</defs>
					<clipPath id="SVGID_00000145030363052850435330000016081369701046300831_">
						<use xlink:href="#SVGID_00000150074926977830466010000004479391021909700283_"  style="overflow:visible;"/>
					</clipPath>
					<g style="clip-path:url(#SVGID_00000145030363052850435330000016081369701046300831_);">
						<circle class="st6" cx="205.2" cy="209.5" r="67.2"/>
						<circle class="st6" cx="75.2" cy="510.6" r="67.2"/>
						<circle class="st6" cx="75.2" cy="840.6" r="67.2"/>
					</g>
				</g>
				<g>
					<defs>
						<polygon id="SVGID_00000154413726482662966660000010660011899851219382_" points="1059.8,142.4 1059.8,142.4 795.5,142.4 
							795.5,907.8 1059.8,907.8 						"/>
					</defs>
					<clipPath id="SVGID_00000178925713162113063710000014941253388542026624_">
						<use xlink:href="#SVGID_00000154413726482662966660000010660011899851219382_"  style="overflow:visible;"/>
					</clipPath>
					<g style="clip-path:url(#SVGID_00000178925713162113063710000014941253388542026624_);">
						<circle class="st6" cx="862.6" cy="209.5" r="67.2"/>
						
							<ellipse transform="matrix(0.1602 -0.9871 0.9871 0.1602 329.5904 1408.6671)" class="st6" cx="992.6" cy="510.6" rx="67.2" ry="67.2"/>
						
							<ellipse transform="matrix(0.1602 -0.9871 0.9871 0.1602 3.8515 1685.807)" class="st6" cx="992.6" cy="840.6" rx="67.2" ry="67.2"/>
					</g>
				</g>
			</g>
		</g>
		<g id="ヨモギ">
			<path class="st9" d="M352.3,374.9C393,325.2,442,302,505.6,292.5s111.1,3.9,167.4,34.9c18.9,10.4,36.9,23,50.7,39.5
				c28.1,33.8,56.3,93.1,59.5,136.9c4.6,61.7,7,125.6,5.5,187.4c-0.7,27.9-7.1,41.5-18.1,67.2c-14,32.6-42.8,56.5-73.4,74.3
				C613.6,881.5,509,892.6,417,862.5c-26.1-8.5-51.8-20.7-70.9-40.4c-8.1-8.6-15.2-18.2-20.9-28.6c-25.2-44.5-26-159.5-23.6-166
				c-10.6-8.4-6.2-19.4-3.9-34c0-8.1,0-16.2,0-26.2c0.2-7.9,2.3-29,2-39.5c2.7-35.6,13.1-70.3,30.5-101.5"/>
			<path class="st10" d="M531.9,494c13.1,0.7,28.4,2.7,34.8,14.1c2.8,4.9,3.3,10.6,3.1,16.2c-0.6,15-6.4,29.3-9.9,44
				c-1.7,7-2.8,14.3-6.1,20.7s-9.2,12.1-16.4,12.7c-11.6,1-20-10.6-24.7-21.3c-8.6-19.8-13-41.1-12.9-62.7c0-6.2,0.6-12.8,4.5-17.7
				C511.5,491.1,525,493.6,531.9,494z"/>
		</g>
	</g>
	<g id="ロゴOutline">
		<g id="塗りもG">
			<path class="st11" d="M288.6,522.9c0,0-1.4-0.1-1.7,14.3s-0.3,50.9,3.4,62"/>
			<g id="無題_-_2021年9月13日_15.54.49.psdc">
				<path class="st11" d="M283.3,574.2C283.4,574.8,283.1,574.2,283.3,574.2"/>
				<path class="st11" d="M810.5,796.3l0.1,0.3L810.5,796.3z"/>
				<path class="st11" d="M810.4,796.1v0.1V796.1z"/>
				<path class="st11" d="M808.4,788.6L808.4,788.6z"/>
				<path class="st11" d="M811.6,810.6L811.6,810.6L811.6,810.6L811.6,810.6z"/>
				<path class="st11" d="M304.6,619.6L304.6,619.6L304.6,619.6z"/>
				<path class="st11" d="M613.7,491L613.7,491L613.7,491z"/>
				<path class="st11" d="M304.8,637.5c0.2-0.8,0.3-2.9,1.5-2.7c1.1,0.5-0.1,1.8,0,2.7c0,0.4-0.3,0.7-0.8,0.7
					C305.2,638.3,304.8,637.9,304.8,637.5z"/>
				<path class="st11" d="M305,618.8"/>
				<path class="st11" d="M305.4,618.1L305.4,618.1z"/>
				<path class="st11" d="M305.4,618L305.4,618L305.4,618z"/>
				<path class="st11" d="M304.6,619.6"/>
				<path class="st11" d="M306.2,617.2L306.2,617.2z"/>
				<path class="st11" d="M299.1,636.2c-1.1-0.4-0.1-1.7,0.1-2.3c0.2-0.4,0.6-0.5,1-0.3c0.3,0.2,0.5,0.5,0.4,0.9l0,0l0,0
					c-0.1,0.3-0.2,0.6-0.3,0.9C300.2,635.7,299.7,636.4,299.1,636.2z"/>
				<path class="st11" d="M299.9,633.8c-0.7-0.5,1-8.4,1.4-8.9c0.2-0.3,0.6-0.7,1-0.5c0.7,0.2-0.6,8.2-1,8.7
					S300.5,634.3,299.9,633.8z"/>
				<path class="st11" d="M298.3,635.8c-0.2-0.2-0.3-0.5-0.2-0.8c0-0.2,0.1-0.3,0.3-0.4c-0.1,0-0.1,0.1-0.1,0.1
					c0.5-1,1.8-0.4,1.3,0.6C299.3,635.9,298.7,636.2,298.3,635.8z"/>
				<path class="st11" d="M284.4,598.4c-0.8-1.5,5.9,23.1,11.5,40.7c-2.4,5.7-4.4,13.9-6,19.8c-11,47.4-0.4,100.5,23.4,142.5
					c26.5,42.4,70.8,71.6,118.9,83.9c4.6,1.3,9.2,2.6,13.9,3.7c-0.9,5.6-1.2,11.3-1.7,17c-0.2,1.3-0.1,2.6,0.2,3.9
					c-0.9,1-1.6,2.3-2,3.6c-13.7,17.8-22.2,39.3-27.2,61.1c-1.5,7.5-2.6,15.2-3.2,22.9c-0.7,5.6,3.3,10.7,8.9,11.5
					c5.4,0.8,11-3.3,11.6-8.8c0.4-7.5,1.3-14.9,2.8-22.2c3.8-16.2,9.4-32.4,18.2-46.6c3.9,13.6,6.7,27.5,8.4,41.5
					c0.5,4.8,0.6,9.7,1.1,14.5c0.1,4.2-0.1,8.6,2,12.3c5.6,9.7,20.5,4.8,19.9-6.2c-2.5-26.4-6.2-53-14.6-78.3
					c-0.8-3.7-1.7-7.5-4.7-9.9c0-0.2,0-0.5-0.1-0.7c0.6-3.5,0.2-7.6,1-11.1c17.2,3.4,34.7,5,52.3,4.7c4,0.2,7.9,0.2,11.9,0.2
					c44.3,0,90.9-9.6,132.3-28.9c0,0.2,0.1,0.5,0.1,0.7c0.5,11.2,0.1,22.5-0.5,33.8c0,0.1,0,0.2,0,0.2c-1.7,1.4-2.9,3.3-3.4,5.4
					c-18.1,22.4-25.3,58.2-28,86.6c0,13,19.3,14.3,21.1,1.4c0.1-6,0.3-18.7,1.3-24.6c3-16.9,9.2-33,18.3-47.5
					c1.9,3.5,3.6,7,5.2,10.7c8.4,18.8,11,46.1,11.5,66.4c4.7,13.8,23.3,8,21.2-6c-0.7-18.6-4.9-44.1-11-61.7
					c-2.5-7.5-6.1-14.6-10.5-21.2c-0.4-2.2-1.4-4.2-3-5.8c-0.5-0.5-1-0.9-1.6-1.3c1.6-5.4-0.2-11.4,0.4-17.8
					c0-6.6-0.4-13.2-0.9-19.8c-0.5-3.3,0.7-6.5-0.5-9.8c30.6-17.5,57.3-40.8,76.5-70.3c3.2-6,5.9-9.8,9.7-16.4
					c5.5-9.4-4.9-21.4-15-17.7c-5.7,1.7-7.8,7.5-10.8,12.1c-3.6,6.2-8.4,11.5-12.3,17.5C687,840.1,617,868.5,547.5,872
					c-38.2,3.5-76.7-2.3-113.4-12.9c-30-7.9-56.9-24.2-78.9-46c-43.1-42.6-44.8-107.2-48.6-164c0-4.2-0.1-8.4,0-12.6
					c0.3-2.7,3.5-14.7,3.8-17.4c0.3-3.3-1.1-4.2-2.6-3.6h-0.1h-0.1l0,0l0,0l0,0l0,0l0,0h0c-1.1,0.6-1.9,1.6-2.5,2.6
					c-1.2,1.7-2.3,3.6-3.4,5.4l-0.1,0.2c-0.1,0.2-0.3,0.5-0.4,0.7c0,0,0,0.1,0,0.2c-0.1,0.3-1.3,7.7-1.4,7.9
					c-0.2,0.4,2.6-0.3,2.4,0.1c-2.5-13.7,1.2-18.8-0.2-36.8l3.4-55c1.9-33.5,3.8-55.9,21.4-100.5c4.5-11.4,12.4-27.3,21.8-43.7
					c11.4-19.9,20.9-29.4,32.5-41.6c22.7-25.8,48.2-40.7,84.8-50.8c18.6-6.8,56.4-11.9,80.9-11.6c29.7,0.4,58.4,3.6,83.8,14.8
					c26,10.8,46.1,24.5,63.9,41.6c8.8,8.5,16.7,17.3,20.2,21.3c2.4,2.6,7.9,10.6,12.2,16.6c6.2,8.8,9.6,17,13.8,24.4
					c8.1,14.9,16.8,30.2,21.8,59.4c4.5,26.2,10,74.9,8.8,104.3c-4.8,107.7-2.1,139.6-1.2,159.7c1.8,26.5,3.4,29.7,13.2,54.8
					c1.2,2.4,2.6,4.6,4.1,6.8c1.9,2.7,4,5.2,6.2,7.6c1.4,1.4,2.9,2.8,4.5,4c1.1,0.8,2.2,1.5,3.3,2.2c1,0.6,2,1.1,3,1.5
					c0.9,0.3,1.8,0.6,2.7,0.9c0.3,0.1,0.7,0.1,1,0.2h0.2l0,0h0.2l0.3-0.1h0.1c0.9-0.5,1.7-1.2,2.4-1.9c0,0,0.1-0.1,0.1-0.2l0,0l0,0
					l0,0l0,0l0,0l0.4-0.5l0.1-0.2c0-0.6,0.1-1.3,0.1-1.9c0-1.3-0.1-2.6-0.2-3.8c-0.3-2.5-0.8-4.9-1.4-7.3l-0.1-0.2
					c-0.7-2.6-1.4-5.2-2.1-7.8c0,0,0,0,0,0.1c0-0.1-0.1-0.3-0.1-0.4l0,0l0,0c-0.8-2.9-1.4-5.9-1.8-8.8c-0.2-1.1-0.3-2.2-0.4-3.2
					c-1.4-5.3-2.3-10.7-2.9-16.2c-2.7-26.4-3.2-53-4.6-79.5c-4.1-86.6,8.3-170.5-23-253.9c-2.1-6.5-4.6-12.9-7.7-19
					c-3.6-7.9-7.7-15.5-12.2-22.9c-5.9-10.2-12.6-19.9-19.9-29.1c-7.8-9.3-16.3-18.1-25.3-26.2c-11.1-9.6-30.3-27.9-70-44.5
					c-18.2-7.6-63.8-18.6-85.6-17.5c-26.3-1.9-45.7,2.4-59.2,4.4c-14.7,2.1-19.5,4.9-42.9,12.3c-43.6,13.7-70.2,36.1-103.5,74.6
					c-43.1,49.8-59.4,124.8-59.4,124.8s-10.6,50-8,85.3c0,0.3,0.1,0.9,0.2,1.7c0,1.4,0.1,2.7,0.4,4.1c0.2,2.2,0.8,5.3,0.8,5.9
					c0.1,0.3,0.2,0.7,0.3,1l-1.5-9"/>
				<path class="st11" d="M549.8,479.7c-22.7-11.2-60.2-2.9-68.5,23.3c-5,12.4-3.1,26.6-1,39.5c4.8,28.1,19.3,58.4,46.9,70
					c11.8,4.8,21.2-1.2,25.9-12.2c8.3-16,14.3-33.1,17.9-50.7C576.3,524.7,575.8,492.8,549.8,479.7z M552.8,536.9
					c-3.2,19.4-10,38.1-20.2,54.9c-24.2-13.9-36.1-51.6-31.9-78.1c0.6-2.9,2.3-5.6,3.6-8.2c1.5-1.6,3.1-3.1,4.8-4.4
					c3.3-1.8,6.7-3.2,10.3-4.1c2.7-0.8,5.6-0.3,8.1-1.6C551.5,497,556.5,516.3,552.8,536.9L552.8,536.9z"/>
			</g>
			<path class="st12" d="M283.5,579.1c-0.2-0.7-0.4-1.3-0.5-2"/>
			<path class="st12" d="M283.7,580.4c-0.1-0.3-0.1-0.6-0.1-0.9"/>
			<path class="st12" d="M282.4,572.6c-0.1-0.3,1.4,8.5,1.4,8.2"/>
			<path class="st12" d="M282.5,573.5c0-0.2-0.1-0.4-0.1-0.6"/>
			<path class="st12" d="M283.2,566.4c-0.1,0.4-0.1,0.7-0.1,1.1"/>
			<path class="st12" d="M239.2,562.3L239.2,562.3"/>
			<line class="st13" x1="256.3" y1="574.7" x2="256.3" y2="574.7"/>
			<circle class="st11" cx="425.4" cy="423.9" r="36.8"/>
			<circle class="st11" cx="642.1" cy="423.9" r="36.8"/>
			<g class="st14">
				<path class="st12" d="M132.4,1080c0.6-1.2,1.2-2.1,2-2.5c0.7-0.5,1.8-0.7,3.3-0.7c2.2,0,3.7,0.4,4.3,1.2c0.6,0.8,1,2.5,1.1,4.9
					l0.2,11v0.6c0,2.3-0.5,3.8-1.4,4.7c-0.9,0.9-2.4,1.4-4.6,1.4c-2.7,0-4.8-1.5-6.1-4.4c-0.2-0.4-0.3-0.8-0.5-1
					c-1.2-2.4-2.8-4.2-4.8-5.4c-2-1.2-4.4-1.8-7.2-1.8c-3.5,0-6.2,0.8-8.4,2.4s-3.2,3.6-3.2,6.1c0,3.5,4.9,6.3,14.6,8.3
					c1.6,0.3,3,0.6,3.9,0.8c7.4,1.6,12.7,4.1,16,7.4c3.3,3.3,4.9,7.8,4.9,13.5c0,7.1-2.4,12.5-7.2,16.3c-4.8,3.8-11.7,5.7-20.6,5.7
					c-3.5,0-6.6-0.2-9.3-0.7c-2.7-0.5-5.4-1.2-8-2.1c-0.6,1-1.3,1.7-2.1,2.2c-0.8,0.4-1.9,0.7-3.3,0.7c-2.4,0-4.1-0.5-5.1-1.4
					c-1-0.9-1.5-2.5-1.5-4.9l-0.2-13.5v-0.6c0-2.5,0.5-4.3,1.4-5.3c0.9-1,2.6-1.5,4.9-1.5c2.5,0,4.6,1.8,6.3,5.4
					c0.4,0.9,0.7,1.6,0.9,2c1.5,3,3.6,5.2,6.2,6.6c2.7,1.5,5.9,2.2,9.8,2.2c3.5,0,6.3-0.7,8.2-2.2c2-1.5,2.9-3.5,2.9-6.2
					c0-4.1-4.4-7.2-13.3-9.3c-2.6-0.6-4.7-1.1-6.3-1.6c-7.4-2-12.6-4.4-15.5-7.3c-2.9-2.9-4.3-7-4.3-12.1c0-6.6,2.5-11.9,7.4-16.1
					c4.9-4.2,11.3-6.2,19.1-6.2c2.6,0,5.2,0.3,7.7,0.8C127.4,1078.1,129.9,1079,132.4,1080z"/>
				<path class="st12" d="M196.7,1134.3h12.4c2.6,0,4.5,0.5,5.6,1.4c1.1,1,1.7,2.6,1.7,4.8c0,2.3-0.6,3.9-1.7,4.9
					c-1.1,1-3,1.5-5.6,1.5h-38.9c-2.6,0-4.5-0.5-5.6-1.5c-1.1-1-1.7-2.6-1.7-4.9c0-2.2,0.5-3.8,1.6-4.8c1.1-1,3-1.4,5.7-1.4h12.4
					v-28h-6.5c-2.6,0-4.4-0.5-5.5-1.5c-1.1-1-1.7-2.6-1.7-4.9c0-2.3,0.5-3.9,1.6-4.8c1.1-1,2.9-1.4,5.6-1.4h17.3
					c1.1,0,1.9,0.2,2.5,0.7c0.6,0.4,0.9,1,0.9,1.8V1134.3z M188.5,1067.8c2.8,0,4.7,0.5,5.6,1.6c0.9,1.1,1.4,3.6,1.4,7.7
					c0,3.9-0.4,6.3-1.2,7.3c-0.8,0.9-2.8,1.4-5.8,1.4c-3,0-4.9-0.4-5.8-1.3c-0.9-0.9-1.3-2.6-1.3-5.3c0-4.9,0.4-8,1.3-9.4
					C183.5,1068.4,185.4,1067.8,188.5,1067.8z"/>
				<path class="st12" d="M256.8,1115.7v18.6h13.6c2.6,0,4.5,0.5,5.6,1.4c1.1,1,1.6,2.6,1.6,4.8c0,2.3-0.5,3.9-1.6,4.9
					c-1.1,1-2.9,1.5-5.6,1.5h-32.2c-2.6,0-4.5-0.5-5.6-1.5c-1.1-1-1.7-2.6-1.7-4.9c0-2.2,0.5-3.8,1.6-4.8c1.1-1,3-1.4,5.7-1.4h4.4
					v-28h-2.5c-2.6,0-4.5-0.5-5.6-1.5c-1.1-1-1.7-2.6-1.7-4.9c0-2.3,0.5-3.9,1.6-4.8c1.1-1,2.9-1.4,5.6-1.4h12.3
					c1,0,1.8,0.2,2.4,0.7c0.6,0.4,0.9,1,0.9,1.8v8.5c4.2-4.5,8.1-7.7,11.7-9.6c3.6-1.9,7.5-2.9,11.7-2.9c3.8,0,6.8,0.9,9,2.6
					c2.2,1.7,3.3,4,3.3,6.9c0,2.2-0.8,4.1-2.3,5.5c-1.5,1.4-3.5,2.2-5.9,2.2c-1.7,0-3.8-0.6-6.1-1.9s-4-1.9-4.9-1.9
					c-1.8,0-4,0.8-6.5,2.5C263.2,1109.7,260.2,1112.2,256.8,1115.7z"/>
				<path class="st12" d="M330.1,1092.5c9.3,0,16.9,2.6,22.7,7.8c5.8,5.2,8.7,11.9,8.7,20.1c0,8.2-2.9,14.9-8.7,20.1
					c-5.8,5.2-13.3,7.8-22.7,7.8c-9.3,0-16.8-2.6-22.6-7.8c-5.8-5.2-8.7-11.9-8.7-20.1c0-8.2,2.9-14.9,8.7-20.1
					C313.3,1095.1,320.9,1092.5,330.1,1092.5z M330.1,1104.7c-4.5,0-8.2,1.5-11.1,4.4c-2.9,2.9-4.3,6.7-4.3,11.2
					c0,4.6,1.4,8.4,4.3,11.4c2.9,3,6.6,4.5,11.1,4.5s8.2-1.5,11.1-4.5c2.9-3,4.4-6.8,4.4-11.4c0-4.6-1.4-8.3-4.3-11.2
					C338.3,1106.1,334.6,1104.7,330.1,1104.7z"/>
				<path class="st12" d="M417.9,1096.9c0.5-1.5,1.2-2.6,2.2-3.4c1-0.7,2.2-1.1,3.8-1.1c2.1,0,3.5,0.6,4.4,1.9
					c0.9,1.2,1.3,3.4,1.3,6.5v9.4c0,2.3-0.5,4.1-1.4,5.2s-2.4,1.7-4.4,1.7c-1.4,0-2.6-0.3-3.6-1s-2-1.9-3-3.7
					c-1.5-2.6-3.5-4.5-6-5.8c-2.5-1.2-5.5-1.9-9.1-1.9c-4.5,0-8.2,1.5-11,4.4c-2.9,2.9-4.3,6.7-4.3,11.2c0,4.8,1.5,8.7,4.4,11.6
					c3,2.9,6.9,4.4,11.9,4.4c4.5,0,9-1.3,13.5-3.8c4.5-2.5,7.2-3.8,8.2-3.8c1.4,0,2.6,0.5,3.5,1.6s1.4,2.5,1.4,4.1
					c0,3.6-2.7,6.8-8.2,9.7c-5.5,2.8-12,4.3-19.5,4.3c-9.3,0-16.8-2.6-22.6-7.8c-5.8-5.2-8.7-11.9-8.7-20.1c0-8,2.9-14.7,8.6-20
					c5.8-5.3,13-8,21.7-8c3,0,5.8,0.4,8.6,1.1C412.4,1094.2,415.1,1095.4,417.9,1096.9z"/>
				<path class="st12" d="M488.6,1096.9c0.5-1.5,1.2-2.6,2.2-3.4c1-0.7,2.2-1.1,3.8-1.1c2.1,0,3.5,0.6,4.4,1.9
					c0.9,1.2,1.3,3.4,1.3,6.5v9.4c0,2.3-0.5,4.1-1.4,5.2s-2.4,1.7-4.4,1.7c-1.4,0-2.6-0.3-3.6-1s-2-1.9-3-3.7
					c-1.5-2.6-3.5-4.5-6-5.8c-2.5-1.2-5.5-1.9-9.1-1.9c-4.5,0-8.2,1.5-11,4.4c-2.9,2.9-4.3,6.7-4.3,11.2c0,4.8,1.5,8.7,4.4,11.6
					c3,2.9,6.9,4.4,11.9,4.4c4.5,0,9-1.3,13.5-3.8c4.5-2.5,7.2-3.8,8.2-3.8c1.4,0,2.6,0.5,3.5,1.6c0.9,1.1,1.4,2.5,1.4,4.1
					c0,3.6-2.7,6.8-8.2,9.7c-5.5,2.8-12,4.3-19.5,4.3c-9.3,0-16.8-2.6-22.6-7.8c-5.8-5.2-8.7-11.9-8.7-20.1c0-8,2.9-14.7,8.6-20
					c5.8-5.3,13-8,21.7-8c3,0,5.8,0.4,8.6,1.1C483.1,1094.2,485.8,1095.4,488.6,1096.9z"/>
				<path class="st12" d="M542.2,1092.5c9.3,0,16.9,2.6,22.7,7.8c5.8,5.2,8.7,11.9,8.7,20.1c0,8.2-2.9,14.9-8.7,20.1
					c-5.8,5.2-13.3,7.8-22.7,7.8c-9.3,0-16.8-2.6-22.6-7.8c-5.8-5.2-8.7-11.9-8.7-20.1c0-8.2,2.9-14.9,8.7-20.1
					C525.5,1095.1,533,1092.5,542.2,1092.5z M542.2,1104.7c-4.5,0-8.2,1.5-11.1,4.4c-2.9,2.9-4.3,6.7-4.3,11.2
					c0,4.6,1.4,8.4,4.3,11.4c2.9,3,6.6,4.5,11.1,4.5c4.5,0,8.2-1.5,11.1-4.5c2.9-3,4.4-6.8,4.4-11.4c0-4.6-1.4-8.3-4.3-11.2
					C550.5,1106.1,546.8,1104.7,542.2,1104.7z"/>
				<path class="st12" d="M698,1115.6c1,0.6,2,1.7,2.9,3.3c0.2,0.2,0.3,0.4,0.4,0.6l9.4,14.8h0.6h1.2c2.2,0,3.9,0.5,5,1.6
					c1.1,1,1.7,2.6,1.7,4.7c0,2.3-0.6,3.9-1.7,4.9c-1.1,1-3,1.5-5.6,1.5h-7.1c-2.6,0-4.6-1.1-6.1-3.4l-0.2-0.1l-14.1-21.7
					c-0.5-0.8-1.2-1.5-1.8-1.9c-0.7-0.4-1.4-0.7-2.2-0.7h-5.4v15.2h0.9c2.1,0,3.6,0.5,4.7,1.6s1.6,2.6,1.6,4.6
					c0,2.3-0.5,3.9-1.6,4.9c-1.1,1-2.9,1.5-5.6,1.5h-14.8c-2.6,0-4.4-0.5-5.5-1.5c-1.1-1-1.7-2.6-1.7-4.9c0-2,0.5-3.6,1.6-4.6
					c1.1-1.1,2.6-1.6,4.6-1.6h1v-42.9h-1c-2,0-3.5-0.5-4.6-1.6c-1.1-1.1-1.6-2.7-1.6-4.7c0-2.2,0.6-3.8,1.7-4.9c1.1-1,3-1.5,5.5-1.5
					h26.5c8.1,0,14.3,1.6,18.5,4.7c4.2,3.2,6.3,7.8,6.3,14c0,4.3-1.2,8-3.5,11.2C705.7,1111.8,702.4,1114.1,698,1115.6z
					 M674.4,1091.1v16.3h7.8c4.8,0,8.2-0.6,10.1-1.9c1.9-1.2,2.9-3.3,2.9-6.2c0-2.9-0.9-5-2.6-6.2c-1.7-1.3-4.6-1.9-8.4-1.9H674.4z"
					/>
				<path class="st12" d="M754.4,1092.5c9.3,0,16.9,2.6,22.7,7.8c5.8,5.2,8.7,11.9,8.7,20.1c0,8.2-2.9,14.9-8.7,20.1
					c-5.8,5.2-13.3,7.8-22.7,7.8c-9.3,0-16.8-2.6-22.6-7.8c-5.8-5.2-8.7-11.9-8.7-20.1c0-8.2,2.9-14.9,8.7-20.1
					C737.6,1095.1,745.1,1092.5,754.4,1092.5z M754.4,1104.7c-4.5,0-8.2,1.5-11.1,4.4c-2.9,2.9-4.3,6.7-4.3,11.2
					c0,4.6,1.4,8.4,4.3,11.4c2.9,3,6.6,4.5,11.1,4.5c4.5,0,8.2-1.5,11.1-4.5c2.9-3,4.4-6.8,4.4-11.4c0-4.6-1.4-8.3-4.3-11.2
					C762.6,1106.1,758.9,1104.7,754.4,1104.7z"/>
				<path class="st12" d="M842.2,1096.9c0.5-1.5,1.2-2.6,2.2-3.4c1-0.7,2.2-1.1,3.8-1.1c2.1,0,3.5,0.6,4.4,1.9
					c0.9,1.2,1.3,3.4,1.3,6.5v9.4c0,2.3-0.5,4.1-1.4,5.2s-2.4,1.7-4.4,1.7c-1.4,0-2.6-0.3-3.6-1s-2-1.9-3-3.7
					c-1.5-2.6-3.5-4.5-6-5.8c-2.5-1.2-5.5-1.9-9.1-1.9c-4.5,0-8.2,1.5-11,4.4c-2.9,2.9-4.3,6.7-4.3,11.2c0,4.8,1.5,8.7,4.4,11.6
					c3,2.9,6.9,4.4,11.9,4.4c4.5,0,9-1.3,13.5-3.8c4.5-2.5,7.2-3.8,8.2-3.8c1.4,0,2.6,0.5,3.5,1.6c0.9,1.1,1.4,2.5,1.4,4.1
					c0,3.6-2.7,6.8-8.2,9.7c-5.5,2.8-12,4.3-19.5,4.3c-9.3,0-16.8-2.6-22.6-7.8c-5.8-5.2-8.7-11.9-8.7-20.1c0-8,2.9-14.7,8.6-20
					c5.8-5.3,13-8,21.7-8c3,0,5.8,0.4,8.6,1.1C836.6,1094.2,839.4,1095.4,842.2,1096.9z"/>
				<path class="st12" d="M912.9,1096.9c0.5-1.5,1.2-2.6,2.2-3.4c1-0.7,2.2-1.1,3.8-1.1c2.1,0,3.5,0.6,4.4,1.9
					c0.9,1.2,1.3,3.4,1.3,6.5v9.4c0,2.3-0.5,4.1-1.4,5.2s-2.4,1.7-4.4,1.7c-1.4,0-2.6-0.3-3.6-1s-2-1.9-3-3.7
					c-1.5-2.6-3.5-4.5-6-5.8c-2.5-1.2-5.5-1.9-9.1-1.9c-4.5,0-8.2,1.5-11,4.4c-2.9,2.9-4.3,6.7-4.3,11.2c0,4.8,1.5,8.7,4.4,11.6
					c3,2.9,6.9,4.4,11.9,4.4c4.5,0,9-1.3,13.5-3.8c4.5-2.5,7.2-3.8,8.2-3.8c1.4,0,2.6,0.5,3.5,1.6s1.4,2.5,1.4,4.1
					c0,3.6-2.7,6.8-8.2,9.7c-5.5,2.8-12,4.3-19.5,4.3c-9.3,0-16.8-2.6-22.6-7.8c-5.8-5.2-8.7-11.9-8.7-20.1c0-8,2.9-14.7,8.6-20
					c5.8-5.3,13-8,21.7-8c3,0,5.8,0.4,8.6,1.1C907.3,1094.2,910.1,1095.4,912.9,1096.9z"/>
				<path class="st12" d="M966.5,1092.5c9.3,0,16.9,2.6,22.7,7.8c5.8,5.2,8.7,11.9,8.7,20.1c0,8.2-2.9,14.9-8.7,20.1
					c-5.8,5.2-13.3,7.8-22.7,7.8c-9.3,0-16.8-2.6-22.6-7.8c-5.8-5.2-8.7-11.9-8.7-20.1c0-8.2,2.9-14.9,8.7-20.1
					C949.7,1095.1,957.2,1092.5,966.5,1092.5z M966.5,1104.7c-4.5,0-8.2,1.5-11.1,4.4c-2.9,2.9-4.3,6.7-4.3,11.2
					c0,4.6,1.4,8.4,4.3,11.4c2.9,3,6.6,4.5,11.1,4.5s8.2-1.5,11.1-4.5c2.9-3,4.4-6.8,4.4-11.4c0-4.6-1.4-8.3-4.3-11.2
					C974.7,1106.1,971,1104.7,966.5,1104.7z"/>
			</g>
			<g class="st14">
				<path class="st15" d="M132.4,1080c0.6-1.2,1.2-2.1,2-2.5c0.7-0.5,1.8-0.7,3.3-0.7c2.2,0,3.7,0.4,4.3,1.2c0.6,0.8,1,2.5,1.1,4.9
					l0.2,11v0.6c0,2.3-0.5,3.8-1.4,4.7c-0.9,0.9-2.4,1.4-4.6,1.4c-2.7,0-4.8-1.5-6.1-4.4c-0.2-0.4-0.3-0.8-0.5-1
					c-1.2-2.4-2.8-4.2-4.8-5.4c-2-1.2-4.4-1.8-7.2-1.8c-3.5,0-6.2,0.8-8.4,2.4s-3.2,3.6-3.2,6.1c0,3.5,4.9,6.3,14.6,8.3
					c1.6,0.3,3,0.6,3.9,0.8c7.4,1.6,12.7,4.1,16,7.4c3.3,3.3,4.9,7.8,4.9,13.5c0,7.1-2.4,12.5-7.2,16.3c-4.8,3.8-11.7,5.7-20.6,5.7
					c-3.5,0-6.6-0.2-9.3-0.7c-2.7-0.5-5.4-1.2-8-2.1c-0.6,1-1.3,1.7-2.1,2.2c-0.8,0.4-1.9,0.7-3.3,0.7c-2.4,0-4.1-0.5-5.1-1.4
					c-1-0.9-1.5-2.5-1.5-4.9l-0.2-13.5v-0.6c0-2.5,0.5-4.3,1.4-5.3c0.9-1,2.6-1.5,4.9-1.5c2.5,0,4.6,1.8,6.3,5.4
					c0.4,0.9,0.7,1.6,0.9,2c1.5,3,3.6,5.2,6.2,6.6c2.7,1.5,5.9,2.2,9.8,2.2c3.5,0,6.3-0.7,8.2-2.2c2-1.5,2.9-3.5,2.9-6.2
					c0-4.1-4.4-7.2-13.3-9.3c-2.6-0.6-4.7-1.1-6.3-1.6c-7.4-2-12.6-4.4-15.5-7.3c-2.9-2.9-4.3-7-4.3-12.1c0-6.6,2.5-11.9,7.4-16.1
					c4.9-4.2,11.3-6.2,19.1-6.2c2.6,0,5.2,0.3,7.7,0.8C127.4,1078.1,129.9,1079,132.4,1080z"/>
				<path class="st15" d="M196.7,1134.3h12.4c2.6,0,4.5,0.5,5.6,1.4c1.1,1,1.7,2.6,1.7,4.8c0,2.3-0.6,3.9-1.7,4.9
					c-1.1,1-3,1.5-5.6,1.5h-38.9c-2.6,0-4.5-0.5-5.6-1.5c-1.1-1-1.7-2.6-1.7-4.9c0-2.2,0.5-3.8,1.6-4.8c1.1-1,3-1.4,5.7-1.4h12.4
					v-28h-6.5c-2.6,0-4.4-0.5-5.5-1.5c-1.1-1-1.7-2.6-1.7-4.9c0-2.3,0.5-3.9,1.6-4.8c1.1-1,2.9-1.4,5.6-1.4h17.3
					c1.1,0,1.9,0.2,2.5,0.7c0.6,0.4,0.9,1,0.9,1.8V1134.3z M188.5,1067.8c2.8,0,4.7,0.5,5.6,1.6c0.9,1.1,1.4,3.6,1.4,7.7
					c0,3.9-0.4,6.3-1.2,7.3c-0.8,0.9-2.8,1.4-5.8,1.4c-3,0-4.9-0.4-5.8-1.3c-0.9-0.9-1.3-2.6-1.3-5.3c0-4.9,0.4-8,1.3-9.4
					C183.5,1068.4,185.4,1067.8,188.5,1067.8z"/>
				<path class="st15" d="M256.8,1115.7v18.6h13.6c2.6,0,4.5,0.5,5.6,1.4c1.1,1,1.6,2.6,1.6,4.8c0,2.3-0.5,3.9-1.6,4.9
					c-1.1,1-2.9,1.5-5.6,1.5h-32.2c-2.6,0-4.5-0.5-5.6-1.5c-1.1-1-1.7-2.6-1.7-4.9c0-2.2,0.5-3.8,1.6-4.8c1.1-1,3-1.4,5.7-1.4h4.4
					v-28h-2.5c-2.6,0-4.5-0.5-5.6-1.5c-1.1-1-1.7-2.6-1.7-4.9c0-2.3,0.5-3.9,1.6-4.8c1.1-1,2.9-1.4,5.6-1.4h12.3
					c1,0,1.8,0.2,2.4,0.7c0.6,0.4,0.9,1,0.9,1.8v8.5c4.2-4.5,8.1-7.7,11.7-9.6c3.6-1.9,7.5-2.9,11.7-2.9c3.8,0,6.8,0.9,9,2.6
					c2.2,1.7,3.3,4,3.3,6.9c0,2.2-0.8,4.1-2.3,5.5c-1.5,1.4-3.5,2.2-5.9,2.2c-1.7,0-3.8-0.6-6.1-1.9s-4-1.9-4.9-1.9
					c-1.8,0-4,0.8-6.5,2.5C263.2,1109.7,260.2,1112.2,256.8,1115.7z"/>
				<path class="st15" d="M330.1,1092.5c9.3,0,16.9,2.6,22.7,7.8c5.8,5.2,8.7,11.9,8.7,20.1c0,8.2-2.9,14.9-8.7,20.1
					c-5.8,5.2-13.3,7.8-22.7,7.8c-9.3,0-16.8-2.6-22.6-7.8c-5.8-5.2-8.7-11.9-8.7-20.1c0-8.2,2.9-14.9,8.7-20.1
					C313.3,1095.1,320.9,1092.5,330.1,1092.5z M330.1,1104.7c-4.5,0-8.2,1.5-11.1,4.4c-2.9,2.9-4.3,6.7-4.3,11.2
					c0,4.6,1.4,8.4,4.3,11.4c2.9,3,6.6,4.5,11.1,4.5s8.2-1.5,11.1-4.5c2.9-3,4.4-6.8,4.4-11.4c0-4.6-1.4-8.3-4.3-11.2
					C338.3,1106.1,334.6,1104.7,330.1,1104.7z"/>
				<path class="st15" d="M417.9,1096.9c0.5-1.5,1.2-2.6,2.2-3.4c1-0.7,2.2-1.1,3.8-1.1c2.1,0,3.5,0.6,4.4,1.9
					c0.9,1.2,1.3,3.4,1.3,6.5v9.4c0,2.3-0.5,4.1-1.4,5.2s-2.4,1.7-4.4,1.7c-1.4,0-2.6-0.3-3.6-1s-2-1.9-3-3.7
					c-1.5-2.6-3.5-4.5-6-5.8c-2.5-1.2-5.5-1.9-9.1-1.9c-4.5,0-8.2,1.5-11,4.4c-2.9,2.9-4.3,6.7-4.3,11.2c0,4.8,1.5,8.7,4.4,11.6
					c3,2.9,6.9,4.4,11.9,4.4c4.5,0,9-1.3,13.5-3.8c4.5-2.5,7.2-3.8,8.2-3.8c1.4,0,2.6,0.5,3.5,1.6s1.4,2.5,1.4,4.1
					c0,3.6-2.7,6.8-8.2,9.7c-5.5,2.8-12,4.3-19.5,4.3c-9.3,0-16.8-2.6-22.6-7.8c-5.8-5.2-8.7-11.9-8.7-20.1c0-8,2.9-14.7,8.6-20
					c5.8-5.3,13-8,21.7-8c3,0,5.8,0.4,8.6,1.1C412.4,1094.2,415.1,1095.4,417.9,1096.9z"/>
				<path class="st15" d="M488.6,1096.9c0.5-1.5,1.2-2.6,2.2-3.4c1-0.7,2.2-1.1,3.8-1.1c2.1,0,3.5,0.6,4.4,1.9
					c0.9,1.2,1.3,3.4,1.3,6.5v9.4c0,2.3-0.5,4.1-1.4,5.2s-2.4,1.7-4.4,1.7c-1.4,0-2.6-0.3-3.6-1s-2-1.9-3-3.7
					c-1.5-2.6-3.5-4.5-6-5.8c-2.5-1.2-5.5-1.9-9.1-1.9c-4.5,0-8.2,1.5-11,4.4c-2.9,2.9-4.3,6.7-4.3,11.2c0,4.8,1.5,8.7,4.4,11.6
					c3,2.9,6.9,4.4,11.9,4.4c4.5,0,9-1.3,13.5-3.8c4.5-2.5,7.2-3.8,8.2-3.8c1.4,0,2.6,0.5,3.5,1.6c0.9,1.1,1.4,2.5,1.4,4.1
					c0,3.6-2.7,6.8-8.2,9.7c-5.5,2.8-12,4.3-19.5,4.3c-9.3,0-16.8-2.6-22.6-7.8c-5.8-5.2-8.7-11.9-8.7-20.1c0-8,2.9-14.7,8.6-20
					c5.8-5.3,13-8,21.7-8c3,0,5.8,0.4,8.6,1.1C483.1,1094.2,485.8,1095.4,488.6,1096.9z"/>
				<path class="st15" d="M542.2,1092.5c9.3,0,16.9,2.6,22.7,7.8c5.8,5.2,8.7,11.9,8.7,20.1c0,8.2-2.9,14.9-8.7,20.1
					c-5.8,5.2-13.3,7.8-22.7,7.8c-9.3,0-16.8-2.6-22.6-7.8c-5.8-5.2-8.7-11.9-8.7-20.1c0-8.2,2.9-14.9,8.7-20.1
					C525.5,1095.1,533,1092.5,542.2,1092.5z M542.2,1104.7c-4.5,0-8.2,1.5-11.1,4.4c-2.9,2.9-4.3,6.7-4.3,11.2
					c0,4.6,1.4,8.4,4.3,11.4c2.9,3,6.6,4.5,11.1,4.5c4.5,0,8.2-1.5,11.1-4.5c2.9-3,4.4-6.8,4.4-11.4c0-4.6-1.4-8.3-4.3-11.2
					C550.5,1106.1,546.8,1104.7,542.2,1104.7z"/>
				<path class="st15" d="M698,1115.6c1,0.6,2,1.7,2.9,3.3c0.2,0.2,0.3,0.4,0.4,0.6l9.4,14.8h0.6h1.2c2.2,0,3.9,0.5,5,1.6
					c1.1,1,1.7,2.6,1.7,4.7c0,2.3-0.6,3.9-1.7,4.9c-1.1,1-3,1.5-5.6,1.5h-7.1c-2.6,0-4.6-1.1-6.1-3.4l-0.2-0.1l-14.1-21.7
					c-0.5-0.8-1.2-1.5-1.8-1.9c-0.7-0.4-1.4-0.7-2.2-0.7h-5.4v15.2h0.9c2.1,0,3.6,0.5,4.7,1.6s1.6,2.6,1.6,4.6
					c0,2.3-0.5,3.9-1.6,4.9c-1.1,1-2.9,1.5-5.6,1.5h-14.8c-2.6,0-4.4-0.5-5.5-1.5c-1.1-1-1.7-2.6-1.7-4.9c0-2,0.5-3.6,1.6-4.6
					c1.1-1.1,2.6-1.6,4.6-1.6h1v-42.9h-1c-2,0-3.5-0.5-4.6-1.6c-1.1-1.1-1.6-2.7-1.6-4.7c0-2.2,0.6-3.8,1.7-4.9c1.1-1,3-1.5,5.5-1.5
					h26.5c8.1,0,14.3,1.6,18.5,4.7c4.2,3.2,6.3,7.8,6.3,14c0,4.3-1.2,8-3.5,11.2C705.7,1111.8,702.4,1114.1,698,1115.6z
					 M674.4,1091.1v16.3h7.8c4.8,0,8.2-0.6,10.1-1.9c1.9-1.2,2.9-3.3,2.9-6.2c0-2.9-0.9-5-2.6-6.2c-1.7-1.3-4.6-1.9-8.4-1.9H674.4z"
					/>
				<path class="st15" d="M754.4,1092.5c9.3,0,16.9,2.6,22.7,7.8c5.8,5.2,8.7,11.9,8.7,20.1c0,8.2-2.9,14.9-8.7,20.1
					c-5.8,5.2-13.3,7.8-22.7,7.8c-9.3,0-16.8-2.6-22.6-7.8c-5.8-5.2-8.7-11.9-8.7-20.1c0-8.2,2.9-14.9,8.7-20.1
					C737.6,1095.1,745.1,1092.5,754.4,1092.5z M754.4,1104.7c-4.5,0-8.2,1.5-11.1,4.4c-2.9,2.9-4.3,6.7-4.3,11.2
					c0,4.6,1.4,8.4,4.3,11.4c2.9,3,6.6,4.5,11.1,4.5c4.5,0,8.2-1.5,11.1-4.5c2.9-3,4.4-6.8,4.4-11.4c0-4.6-1.4-8.3-4.3-11.2
					C762.6,1106.1,758.9,1104.7,754.4,1104.7z"/>
				<path class="st15" d="M842.2,1096.9c0.5-1.5,1.2-2.6,2.2-3.4c1-0.7,2.2-1.1,3.8-1.1c2.1,0,3.5,0.6,4.4,1.9
					c0.9,1.2,1.3,3.4,1.3,6.5v9.4c0,2.3-0.5,4.1-1.4,5.2s-2.4,1.7-4.4,1.7c-1.4,0-2.6-0.3-3.6-1s-2-1.9-3-3.7
					c-1.5-2.6-3.5-4.5-6-5.8c-2.5-1.2-5.5-1.9-9.1-1.9c-4.5,0-8.2,1.5-11,4.4c-2.9,2.9-4.3,6.7-4.3,11.2c0,4.8,1.5,8.7,4.4,11.6
					c3,2.9,6.9,4.4,11.9,4.4c4.5,0,9-1.3,13.5-3.8c4.5-2.5,7.2-3.8,8.2-3.8c1.4,0,2.6,0.5,3.5,1.6c0.9,1.1,1.4,2.5,1.4,4.1
					c0,3.6-2.7,6.8-8.2,9.7c-5.5,2.8-12,4.3-19.5,4.3c-9.3,0-16.8-2.6-22.6-7.8c-5.8-5.2-8.7-11.9-8.7-20.1c0-8,2.9-14.7,8.6-20
					c5.8-5.3,13-8,21.7-8c3,0,5.8,0.4,8.6,1.1C836.6,1094.2,839.4,1095.4,842.2,1096.9z"/>
				<path class="st15" d="M912.9,1096.9c0.5-1.5,1.2-2.6,2.2-3.4c1-0.7,2.2-1.1,3.8-1.1c2.1,0,3.5,0.6,4.4,1.9
					c0.9,1.2,1.3,3.4,1.3,6.5v9.4c0,2.3-0.5,4.1-1.4,5.2s-2.4,1.7-4.4,1.7c-1.4,0-2.6-0.3-3.6-1s-2-1.9-3-3.7
					c-1.5-2.6-3.5-4.5-6-5.8c-2.5-1.2-5.5-1.9-9.1-1.9c-4.5,0-8.2,1.5-11,4.4c-2.9,2.9-4.3,6.7-4.3,11.2c0,4.8,1.5,8.7,4.4,11.6
					c3,2.9,6.9,4.4,11.9,4.4c4.5,0,9-1.3,13.5-3.8c4.5-2.5,7.2-3.8,8.2-3.8c1.4,0,2.6,0.5,3.5,1.6s1.4,2.5,1.4,4.1
					c0,3.6-2.7,6.8-8.2,9.7c-5.5,2.8-12,4.3-19.5,4.3c-9.3,0-16.8-2.6-22.6-7.8c-5.8-5.2-8.7-11.9-8.7-20.1c0-8,2.9-14.7,8.6-20
					c5.8-5.3,13-8,21.7-8c3,0,5.8,0.4,8.6,1.1C907.3,1094.2,910.1,1095.4,912.9,1096.9z"/>
				<path class="st15" d="M966.5,1092.5c9.3,0,16.9,2.6,22.7,7.8c5.8,5.2,8.7,11.9,8.7,20.1c0,8.2-2.9,14.9-8.7,20.1
					c-5.8,5.2-13.3,7.8-22.7,7.8c-9.3,0-16.8-2.6-22.6-7.8c-5.8-5.2-8.7-11.9-8.7-20.1c0-8.2,2.9-14.9,8.7-20.1
					C949.7,1095.1,957.2,1092.5,966.5,1092.5z M966.5,1104.7c-4.5,0-8.2,1.5-11.1,4.4c-2.9,2.9-4.3,6.7-4.3,11.2
					c0,4.6,1.4,8.4,4.3,11.4c2.9,3,6.6,4.5,11.1,4.5s8.2-1.5,11.1-4.5c2.9-3,4.4-6.8,4.4-11.4c0-4.6-1.4-8.3-4.3-11.2
					C974.7,1106.1,971,1104.7,966.5,1104.7z"/>
			</g>
		</g>
		<g id="線のみG">
			<path class="st16" d="M21.7,932.3h1027.9c5.5,0,10,4.5,10,10v77.7c0,5.5-4.5,10-10,10H21.7c-5.5,0-10-4.5-10-10v-77.7
				C11.7,936.8,16.2,932.3,21.7,932.3z"/>
			<circle class="st16" cx="534.6" cy="75.2" r="67.2"/>
			<g>
				<defs>
					<rect id="SVGID_00000107548596595662980730000018148689686284895421_" x="4.1" y="40.3" width="398.6" height="687.8"/>
				</defs>
				<clipPath id="SVGID_00000167363661289532931310000014266339297670086532_">
					<use xlink:href="#SVGID_00000107548596595662980730000018148689686284895421_"  style="overflow:visible;"/>
				</clipPath>
				<g style="clip-path:url(#SVGID_00000167363661289532931310000014266339297670086532_);">
					<circle class="st18" cx="347.6" cy="95.3" r="47"/>
					<circle class="st16" cx="114.5" cy="353.8" r="47"/>
					<circle class="st16" cx="59.1" cy="673.2" r="47"/>
				</g>
			</g>
			<g>
				<defs>
					<rect id="SVGID_00000142856830529872975830000008840775214569162154_" x="659.4" y="40.3" width="398.6" height="687.8"/>
				</defs>
				<clipPath id="SVGID_00000161606666373234310760000016603996111809429147_">
					<use xlink:href="#SVGID_00000142856830529872975830000008840775214569162154_"  style="overflow:visible;"/>
				</clipPath>
				<g style="clip-path:url(#SVGID_00000161606666373234310760000016603996111809429147_);">
					<circle class="st16" cx="714.4" cy="95.3" r="47"/>
					<circle class="st16" cx="947.5" cy="353.8" r="47"/>
					
						<ellipse transform="matrix(0.1602 -0.9871 0.9871 0.1602 177.8091 1555.3296)" class="st16" cx="1002.9" cy="673.2" rx="47" ry="47"/>
				</g>
			</g>
			<g>
				<defs>
					<rect id="SVGID_00000167398615349850000040000010527423684554572964_" y="134.4" width="280.4" height="781.5"/>
				</defs>
				<clipPath id="SVGID_00000149378606928817490540000006917910986019023008_">
					<use xlink:href="#SVGID_00000167398615349850000040000010527423684554572964_"  style="overflow:visible;"/>
				</clipPath>
				<g style="clip-path:url(#SVGID_00000149378606928817490540000006917910986019023008_);">
					<circle class="st16" cx="205.2" cy="209.5" r="67.2"/>
					<circle class="st16" cx="75.2" cy="510.6" r="67.2"/>
					<circle class="st16" cx="75.2" cy="840.6" r="67.2"/>
				</g>
			</g>
			<g>
				<defs>
					<rect id="SVGID_00000057146048410885979320000009300062673220460961_" x="787.5" y="134.4" width="280.3" height="781.5"/>
				</defs>
				<clipPath id="SVGID_00000011026625531885908150000010714525678361828797_">
					<use xlink:href="#SVGID_00000057146048410885979320000009300062673220460961_"  style="overflow:visible;"/>
				</clipPath>
				<g style="clip-path:url(#SVGID_00000011026625531885908150000010714525678361828797_);">
					<circle class="st16" cx="862.6" cy="209.5" r="67.2"/>
					
						<ellipse transform="matrix(0.1602 -0.9871 0.9871 0.1602 329.5904 1408.6671)" class="st16" cx="992.6" cy="510.6" rx="67.2" ry="67.2"/>
					
						<ellipse transform="matrix(0.1602 -0.9871 0.9871 0.1602 3.8515 1685.807)" class="st16" cx="992.6" cy="840.6" rx="67.2" ry="67.2"/>
				</g>
			</g>
		</g>
	</g>
</g>
<g id="色あり_00000057845119669002166130000005426709207707215018_">
	<g id="color_00000056385399792599343150000014592614449561672838_">
		<g id="ヨモギ以外の色_00000011733039160771083620000003448552249066493856_">
			<path id="止まり木_00000090257692257818309470000003779405630289506989_" class="st0" d="M-1369.7,932.3h1027.9
				c5.5,0,10,4.5,10,10v77.7c0,5.5-4.5,10-10,10h-1027.9c-5.5,0-10-4.5-10-10v-77.7C-1379.7,936.8-1375.2,932.3-1369.7,932.3z"/>
			<g>
				<defs>
					<polygon id="SVGID_00000010303199045576715330000001189570905672830358_" points="-1379.3,48.3 -1379.3,48.3 -996.8,48.3 
						-996.8,720.2 -1379.3,720.2 					"/>
				</defs>
				<clipPath id="SVGID_00000036238192126381736860000007056662674777168526_">
					<use xlink:href="#SVGID_00000010303199045576715330000001189570905672830358_"  style="overflow:visible;"/>
				</clipPath>
				<g style="clip-path:url(#SVGID_00000036238192126381736860000007056662674777168526_);">
					<circle class="st2" cx="-1043.8" cy="95.3" r="47"/>
					<circle class="st3" cx="-1276.9" cy="353.8" r="47"/>
					<circle class="st3" cx="-1332.3" cy="673.2" r="47"/>
				</g>
			</g>
			<g>
				<defs>
					<polygon id="SVGID_00000137817977873776171140000004488647108028464055_" points="-341.5,48.3 -341.5,48.3 -724.1,48.3 
						-724.1,720.2 -341.5,720.2 					"/>
				</defs>
				<clipPath id="SVGID_00000011710501988889861600000006603958717386425231_">
					<use xlink:href="#SVGID_00000137817977873776171140000004488647108028464055_"  style="overflow:visible;"/>
				</clipPath>
				<g style="clip-path:url(#SVGID_00000011710501988889861600000006603958717386425231_);">
					<circle class="st5" cx="-677" cy="95.3" r="47"/>
					<circle class="st3" cx="-443.9" cy="353.8" r="47"/>
					
						<ellipse transform="matrix(0.1602 -0.9871 0.9871 0.1602 -990.7405 181.864)" class="st3" cx="-388.5" cy="673.2" rx="47" ry="47"/>
				</g>
			</g>
			<g id="大きい丸_00000009577309104456051440000006930970410326131877_">
				<circle class="st6" cx="-856.8" cy="75.2" r="67.2"/>
				<g>
					<defs>
						<polygon id="SVGID_00000070825624739105911720000012849305512223692170_" points="-1383.4,142.4 -1383.4,142.4 -1119.1,142.4 
							-1119.1,907.8 -1383.4,907.8 						"/>
					</defs>
					<clipPath id="SVGID_00000130639918343233050980000011171315484921912729_">
						<use xlink:href="#SVGID_00000070825624739105911720000012849305512223692170_"  style="overflow:visible;"/>
					</clipPath>
					<g style="clip-path:url(#SVGID_00000130639918343233050980000011171315484921912729_);">
						<circle class="st6" cx="-1186.3" cy="209.5" r="67.2"/>
						<circle class="st6" cx="-1316.3" cy="510.6" r="67.2"/>
						<circle class="st6" cx="-1316.3" cy="840.6" r="67.2"/>
					</g>
				</g>
				<g>
					<defs>
						<polygon id="SVGID_00000166655057887337698150000010001615990049556882_" points="-331.6,142.4 -331.6,142.4 -596,142.4 
							-596,907.8 -331.6,907.8 						"/>
					</defs>
					<clipPath id="SVGID_00000005257566446981541090000016077688029634210462_">
						<use xlink:href="#SVGID_00000166655057887337698150000010001615990049556882_"  style="overflow:visible;"/>
					</clipPath>
					<g style="clip-path:url(#SVGID_00000005257566446981541090000016077688029634210462_);">
						<circle class="st6" cx="-528.8" cy="209.5" r="67.2"/>
						
							<ellipse transform="matrix(0.1602 -0.9871 0.9871 0.1602 -838.9594 35.2015)" class="st6" cx="-398.8" cy="510.6" rx="67.2" ry="67.2"/>
						
							<ellipse transform="matrix(0.1602 -0.9871 0.9871 0.1602 -1164.6982 312.3414)" class="st6" cx="-398.8" cy="840.6" rx="67.2" ry="67.2"/>
					</g>
				</g>
			</g>
		</g>
		<g id="ヨモギ_00000009573702494523596660000008128606291912477355_">
			<path class="st9" d="M-1039.2,374.9c40.8-49.7,89.7-72.9,153.3-82.4s111.1,3.9,167.4,34.9c18.9,10.4,36.9,23,50.7,39.5
				c28.1,33.8,56.3,93.1,59.5,136.9c4.6,61.7,7,125.6,5.5,187.4c-0.7,27.9-7.1,41.5-18.1,67.2c-14,32.6-42.8,56.5-73.4,74.3
				c-83.7,48.7-188.2,59.8-280.2,29.7c-26.1-8.5-51.8-20.7-70.9-40.4c-8.1-8.6-15.2-18.2-20.9-28.6c-25.2-44.5-26-159.5-23.6-166
				c-10.6-8.4-6.2-19.4-3.9-34c0-8.1,0-16.2,0-26.2c0.2-7.9,2.3-29,2-39.5c2.7-35.6,13.1-70.3,30.4-101.5"/>
			<path class="st10" d="M-859.5,494c13.1,0.7,28.4,2.7,34.8,14.1c2.8,4.9,3.3,10.6,3.1,16.2c-0.6,15-6.4,29.3-9.9,44
				c-1.7,7-2.8,14.3-6.1,20.7s-9.2,12.1-16.4,12.7c-11.6,1-20-10.6-24.7-21.3c-8.6-19.8-13-41.1-12.9-62.7c0-6.2,0.6-12.8,4.5-17.7
				C-880,491.1-866.4,493.6-859.5,494z"/>
		</g>
	</g>
	<g id="ロゴOutline_00000075120982124537487430000010511375041869953423_">
		<g id="塗りもG_00000126296701879774633710000011111487832013722034_">
			<path class="st11" d="M-1102.8,522.9c0,0-1.4-0.1-1.7,14.3s-0.3,50.9,3.4,62"/>
			<g id="無題_-_2021年9月13日_15.54.49.psdc_00000168813710711599441550000005582029236711212956_">
				<path class="st11" d="M-1108.1,574.2C-1108.1,574.8-1108.3,574.2-1108.1,574.2"/>
				<path class="st11" d="M-580.9,796.3l0.1,0.3L-580.9,796.3z"/>
				<path class="st11" d="M-581,796.1v0.1V796.1z"/>
				<path class="st11" d="M-583,788.6L-583,788.6z"/>
				<path class="st11" d="M-579.8,810.6L-579.8,810.6L-579.8,810.6L-579.8,810.6z"/>
				<path class="st11" d="M-1086.8,619.6L-1086.8,619.6L-1086.8,619.6z"/>
				<path class="st11" d="M-777.7,491L-777.7,491L-777.7,491z"/>
				<path class="st11" d="M-1086.6,637.5c0.2-0.8,0.3-2.9,1.5-2.7c1.1,0.5-0.1,1.8,0,2.7c0,0.4-0.3,0.7-0.8,0.7
					C-1086.3,638.3-1086.6,637.9-1086.6,637.5z"/>
				<path class="st11" d="M-1086.4,618.8"/>
				<path class="st11" d="M-1086.1,618.1L-1086.1,618.1z"/>
				<path class="st11" d="M-1086,618L-1086,618L-1086,618z"/>
				<path class="st11" d="M-1086.8,619.6"/>
				<path class="st11" d="M-1085.2,617.2L-1085.2,617.2z"/>
				<path class="st11" d="M-1092.3,636.2c-1.1-0.4-0.1-1.7,0.1-2.3c0.2-0.4,0.6-0.5,1-0.3c0.3,0.2,0.5,0.5,0.4,0.9l0,0l0,0
					c-0.1,0.3-0.2,0.6-0.3,0.9C-1091.2,635.7-1091.7,636.4-1092.3,636.2z"/>
				<path class="st11" d="M-1091.6,633.8c-0.7-0.5,1-8.4,1.4-8.9c0.2-0.3,0.6-0.7,1-0.5c0.7,0.2-0.6,8.2-1,8.7
					S-1090.9,634.3-1091.6,633.8z"/>
				<path class="st11" d="M-1093.1,635.8c-0.2-0.2-0.3-0.5-0.2-0.8c0-0.2,0.1-0.3,0.3-0.4c-0.1,0-0.1,0.1-0.1,0.1
					c0.5-1,1.8-0.4,1.3,0.6C-1092.1,635.9-1092.7,636.2-1093.1,635.8z"/>
				<path class="st11" d="M-1107.1,598.4c-0.8-1.5,5.9,23.1,11.5,40.7c-2.4,5.7-4.4,13.9-6,19.8c-11,47.4-0.4,100.5,23.4,142.5
					c26.5,42.4,70.8,71.6,118.9,83.9c4.6,1.3,9.2,2.6,13.9,3.7c-0.9,5.6-1.2,11.3-1.7,17c-0.2,1.3-0.1,2.6,0.2,3.9
					c-0.9,1-1.6,2.3-2,3.6c-13.7,17.8-22.2,39.3-27.2,61.1c-1.5,7.5-2.6,15.2-3.2,22.9c-0.7,5.6,3.3,10.7,8.9,11.5
					c5.4,0.8,11-3.3,11.6-8.8c0.4-7.5,1.3-14.9,2.8-22.2c3.8-16.2,9.4-32.4,18.2-46.6c3.9,13.6,6.7,27.5,8.4,41.5
					c0.5,4.8,0.6,9.7,1.1,14.5c0.2,4.2-0.1,8.6,2,12.3c5.6,9.7,20.5,4.8,19.9-6.2c-2.5-26.4-6.2-53-14.6-78.3
					c-0.8-3.7-1.7-7.5-4.7-9.9c0-0.2,0-0.5-0.1-0.7c0.6-3.5,0.2-7.6,1-11.1c17.2,3.4,34.7,5,52.3,4.7c4,0.2,7.9,0.2,11.9,0.2
					c44.3,0,90.9-9.6,132.3-28.9c0,0.2,0.1,0.5,0.1,0.7c0.5,11.2,0.1,22.5-0.5,33.8c0,0.1,0,0.2,0,0.2c-1.7,1.4-2.9,3.3-3.4,5.4
					c-18.1,22.4-25.3,58.2-28,86.6c0,13,19.3,14.3,21.1,1.4c0.1-6,0.3-18.7,1.3-24.6c3-16.9,9.2-33,18.3-47.5
					c1.9,3.5,3.6,7,5.2,10.7c8.4,18.8,11,46.1,11.5,66.4c4.7,13.8,23.3,8,21.2-6c-0.7-18.6-4.9-44.1-11-61.7
					c-2.5-7.5-6.1-14.6-10.5-21.2c-0.4-2.2-1.4-4.2-3-5.8c-0.5-0.5-1-0.9-1.6-1.3c1.6-5.4-0.2-11.4,0.4-17.8
					c0-6.6-0.4-13.2-0.9-19.8c-0.5-3.3,0.7-6.5-0.5-9.8c30.6-17.5,57.3-40.8,76.5-70.3c3.2-6,5.9-9.8,9.7-16.4
					c5.5-9.4-4.9-21.4-15-17.7c-5.7,1.7-7.8,7.5-10.8,12.1c-3.6,6.2-8.4,11.5-12.3,17.5c-43.7,55.5-113.7,83.9-183.2,87.4
					c-38.2,3.5-76.7-2.3-113.4-12.9c-30-7.9-56.9-24.2-78.9-46c-43.1-42.6-44.8-107.2-48.6-164c0-4.2-0.1-8.4,0-12.6
					c0.3-2.7,3.5-14.7,3.8-17.4c0.3-3.3-1.1-4.2-2.6-3.6h-0.1h-0.1l0,0l0,0l0,0l0,0l0,0h0c-1.1,0.6-1.9,1.6-2.5,2.6
					c-1.2,1.7-2.3,3.6-3.3,5.4l-0.1,0.2c-0.1,0.2-0.3,0.5-0.4,0.7c0,0,0,0.1,0,0.2c-0.1,0.3-1.3,7.7-1.3,7.9
					c-0.2,0.4,2.6-0.3,2.4,0.1c-2.4-13.7,1.2-18.8-0.2-36.8l3.4-55c1.9-33.5,3.8-55.9,21.4-100.5c4.5-11.4,12.4-27.3,21.8-43.7
					c11.4-19.9,20.9-29.4,32.5-41.6c22.7-25.8,48.2-40.7,84.8-50.8c18.6-6.8,56.4-11.9,80.9-11.6c29.7,0.4,58.4,3.6,83.8,14.8
					c26,10.8,46.1,24.5,63.9,41.6c8.8,8.5,16.7,17.3,20.2,21.3c2.4,2.6,7.9,10.6,12.2,16.6c6.2,8.8,9.6,17,13.8,24.4
					c8.1,14.9,16.8,30.2,21.8,59.4c4.5,26.2,10,74.9,8.8,104.3c-4.8,107.7-2.1,139.6-1.2,159.7c1.8,26.5,3.4,29.7,13.2,54.8
					c1.2,2.4,2.6,4.6,4.1,6.8c1.9,2.7,4,5.2,6.2,7.6c1.4,1.4,2.9,2.8,4.5,4c1.1,0.8,2.2,1.5,3.3,2.2c1,0.6,2,1.1,3,1.5
					c0.9,0.3,1.8,0.6,2.7,0.9c0.3,0.1,0.7,0.1,1,0.2h0.2l0,0h0.2l0.3-0.1h0.1c0.9-0.5,1.7-1.2,2.4-1.9c0,0,0.1-0.1,0.1-0.2l0,0l0,0
					l0,0l0,0l0,0l0.4-0.5l0.1-0.2c0-0.6,0.1-1.3,0.1-1.9c0-1.3-0.1-2.6-0.2-3.8c-0.3-2.5-0.8-4.9-1.4-7.3l-0.1-0.2
					c-0.7-2.6-1.4-5.2-2.1-7.8c0,0,0,0,0,0.1c0-0.1-0.1-0.3-0.1-0.4l0,0l0,0c-0.8-2.9-1.4-5.9-1.8-8.8c-0.2-1.1-0.3-2.2-0.4-3.2
					c-1.4-5.3-2.3-10.7-2.9-16.2c-2.7-26.4-3.2-53-4.6-79.5c-4.1-86.6,8.3-170.5-23-253.9c-2.1-6.5-4.6-12.9-7.7-19
					c-3.6-7.9-7.7-15.5-12.2-22.9c-5.9-10.2-12.6-19.9-19.9-29.1c-7.8-9.3-16.3-18.1-25.3-26.2c-11.1-9.6-30.3-27.9-70-44.5
					c-18.2-7.6-63.8-18.6-85.6-17.5c-26.3-1.9-45.7,2.4-59.2,4.4c-14.7,2.1-19.5,4.9-42.9,12.3c-43.6,13.7-70.2,36.1-103.5,74.6
					c-43.1,49.8-59.4,124.8-59.4,124.8s-10.6,50-8,85.3c0,0.3,0.1,0.9,0.2,1.7c0,1.4,0.1,2.7,0.4,4.1c0.2,2.2,0.8,5.3,0.8,5.9
					c0.1,0.3,0.2,0.7,0.3,1l-1.5-9"/>
				<path class="st11" d="M-841.6,479.7c-22.7-11.2-60.2-2.9-68.5,23.3c-5,12.4-3.1,26.6-1,39.5c4.8,28.1,19.3,58.4,46.9,70
					c11.8,4.8,21.2-1.2,25.9-12.2c8.3-16,14.3-33.1,17.9-50.7C-815.1,524.7-815.6,492.8-841.6,479.7z M-838.6,536.9
					c-3.2,19.4-10,38.1-20.2,54.9c-24.2-13.9-36.1-51.6-31.9-78.1c0.7-2.9,2.3-5.6,3.6-8.2c1.5-1.6,3.1-3.1,4.8-4.4
					c3.3-1.8,6.7-3.2,10.3-4.1c2.7-0.8,5.6-0.3,8.1-1.6C-839.9,497-834.9,516.3-838.6,536.9L-838.6,536.9z"/>
			</g>
			<path class="st12" d="M-1108,579.1c-0.2-0.7-0.4-1.3-0.5-2"/>
			<path class="st12" d="M-1107.7,580.4c-0.1-0.3-0.1-0.6-0.2-0.9"/>
			<path class="st12" d="M-1109,572.6c-0.1-0.3,1.4,8.5,1.4,8.2"/>
			<path class="st12" d="M-1108.9,573.5c0-0.2-0.1-0.4-0.1-0.6"/>
			<path class="st12" d="M-1108.2,566.4c-0.1,0.4-0.1,0.7-0.1,1.1"/>
			<path class="st12" d="M-1152.3,562.3L-1152.3,562.3"/>
			<line class="st13" x1="-1135.1" y1="574.7" x2="-1135.1" y2="574.7"/>
			<circle class="st11" cx="-966" cy="423.9" r="36.8"/>
			<circle class="st11" cx="-749.3" cy="423.9" r="36.8"/>
			<text transform="matrix(1 0 0 1 -1308.7832 1146.9399)" class="st12" style="font-family:'Courier-Bold'; font-size:117.83px;">Sirocco Rocco</text>
			<text transform="matrix(1 0 0 1 -1308.7832 1146.9399)" class="st15" style="font-family:'Courier-Bold'; font-size:117.83px;">Sirocco Rocco</text>
		</g>
		<g id="線のみG_00000145736937791278473640000018150896737250118063_">
			<path class="st16" d="M-1369.7,932.3h1027.9c5.5,0,10,4.5,10,10v77.7c0,5.5-4.5,10-10,10h-1027.9c-5.5,0-10-4.5-10-10v-77.7
				C-1379.7,936.8-1375.2,932.3-1369.7,932.3z"/>
			<circle class="st16" cx="-856.8" cy="75.2" r="67.2"/>
			<g>
				<defs>
					<rect id="SVGID_00000183245994534557258010000001557999386606636708_" x="-1387.3" y="40.3" width="398.6" height="687.8"/>
				</defs>
				<clipPath id="SVGID_00000130617359024337930510000008531889925788771491_">
					<use xlink:href="#SVGID_00000183245994534557258010000001557999386606636708_"  style="overflow:visible;"/>
				</clipPath>
				<g style="clip-path:url(#SVGID_00000130617359024337930510000008531889925788771491_);">
					<circle class="st18" cx="-1043.8" cy="95.3" r="47"/>
					<circle class="st16" cx="-1276.9" cy="353.8" r="47"/>
					<circle class="st16" cx="-1332.3" cy="673.2" r="47"/>
				</g>
			</g>
			<g>
				<defs>
					<rect id="SVGID_00000129897932524139507760000017688603947498561929_" x="-732" y="40.3" width="398.6" height="687.8"/>
				</defs>
				<clipPath id="SVGID_00000126285538110027170970000003954858352491368860_">
					<use xlink:href="#SVGID_00000129897932524139507760000017688603947498561929_"  style="overflow:visible;"/>
				</clipPath>
				<g style="clip-path:url(#SVGID_00000126285538110027170970000003954858352491368860_);">
					<circle class="st16" cx="-677" cy="95.3" r="47"/>
					<circle class="st16" cx="-443.9" cy="353.8" r="47"/>
					
						<ellipse transform="matrix(0.1602 -0.9871 0.9871 0.1602 -990.7405 181.864)" class="st16" cx="-388.5" cy="673.2" rx="47" ry="47"/>
				</g>
			</g>
			<g>
				<defs>
					<rect id="SVGID_00000080904909832787463270000009556760112690859691_" x="-1391.4" y="134.4" width="280.4" height="781.5"/>
				</defs>
				<clipPath id="SVGID_00000098943170434793927990000016470575327990118820_">
					<use xlink:href="#SVGID_00000080904909832787463270000009556760112690859691_"  style="overflow:visible;"/>
				</clipPath>
				<g style="clip-path:url(#SVGID_00000098943170434793927990000016470575327990118820_);">
					<circle class="st16" cx="-1186.3" cy="209.5" r="67.2"/>
					<circle class="st16" cx="-1316.3" cy="510.6" r="67.2"/>
					<circle class="st16" cx="-1316.3" cy="840.6" r="67.2"/>
				</g>
			</g>
			<g>
				<defs>
					<rect id="SVGID_00000059992114926685466810000008057144231731596969_" x="-604" y="134.4" width="280.3" height="781.5"/>
				</defs>
				<clipPath id="SVGID_00000061439218848860093620000008733477177030550928_">
					<use xlink:href="#SVGID_00000059992114926685466810000008057144231731596969_"  style="overflow:visible;"/>
				</clipPath>
				<g style="clip-path:url(#SVGID_00000061439218848860093620000008733477177030550928_);">
					<circle class="st16" cx="-528.8" cy="209.5" r="67.2"/>
					
						<ellipse transform="matrix(0.1602 -0.9871 0.9871 0.1602 -838.9594 35.2015)" class="st16" cx="-398.8" cy="510.6" rx="67.2" ry="67.2"/>
					
						<ellipse transform="matrix(0.1602 -0.9871 0.9871 0.1602 -1164.6982 312.3414)" class="st16" cx="-398.8" cy="840.6" rx="67.2" ry="67.2"/>
				</g>
			</g>
		</g>
	</g>
</g>
<g id="白色">
	<g id="color_00000169520982338668260110000018426475342625110932_" class="st30">
		<g id="ヨモギ以外の色_00000141441474326961144970000013415863288196120704_" class="st31">
			<path id="止まり木_00000145045626147228108290000005658038165568443822_" class="st0" d="M-3050.3,932.3h1027.9
				c5.5,0,10,4.5,10,10v77.7c0,5.5-4.5,10-10,10h-1027.9c-5.5,0-10-4.5-10-10v-77.7C-3060.3,936.8-3055.8,932.3-3050.3,932.3z"/>
			<g>
				<defs>
					<polygon id="SVGID_00000055702032467688877360000006384226255326575249_" points="-3059.9,48.3 -3059.9,48.3 -2677.4,48.3 
						-2677.4,720.2 -3059.9,720.2 					"/>
				</defs>
				<clipPath id="SVGID_00000127758872427895519130000016245880107537779871_">
					<use xlink:href="#SVGID_00000055702032467688877360000006384226255326575249_"  style="overflow:visible;"/>
				</clipPath>
				<g style="clip-path:url(#SVGID_00000127758872427895519130000016245880107537779871_);">
					<circle class="st2" cx="-2724.3" cy="95.3" r="47"/>
					<circle class="st3" cx="-2957.5" cy="353.8" r="47"/>
					<circle class="st3" cx="-3012.9" cy="673.2" r="47"/>
				</g>
			</g>
			<g>
				<defs>
					<polygon id="SVGID_00000157989237489414366760000010079056918173884346_" points="-2022.1,48.3 -2022.1,48.3 -2404.6,48.3 
						-2404.6,720.2 -2022.1,720.2 					"/>
				</defs>
				<clipPath id="SVGID_00000043443136175605368610000017951553727871331260_">
					<use xlink:href="#SVGID_00000157989237489414366760000010079056918173884346_"  style="overflow:visible;"/>
				</clipPath>
				<g style="clip-path:url(#SVGID_00000043443136175605368610000017951553727871331260_);">
					<circle class="st2" cx="-2357.6" cy="95.3" r="47"/>
					<circle class="st3" cx="-2124.5" cy="353.8" r="47"/>
					
						<ellipse transform="matrix(0.1602 -0.9871 0.9871 0.1602 -2402.1057 -1476.9969)" class="st3" cx="-2069.1" cy="673.2" rx="47" ry="47"/>
				</g>
			</g>
			<g id="大きい丸_00000026140446824908095700000013430120094923289485_">
				<circle class="st6" cx="-2537.4" cy="75.2" r="67.2"/>
				<g>
					<defs>
						<polygon id="SVGID_00000132778849540784193720000014677390302101983394_" points="-3064,142.4 -3064,142.4 -2799.6,142.4 
							-2799.6,907.8 -3064,907.8 						"/>
					</defs>
					<clipPath id="SVGID_00000107553051692488365020000008511486642448870053_">
						<use xlink:href="#SVGID_00000132778849540784193720000014677390302101983394_"  style="overflow:visible;"/>
					</clipPath>
					<g style="clip-path:url(#SVGID_00000107553051692488365020000008511486642448870053_);">
						<circle class="st6" cx="-2866.8" cy="209.5" r="67.2"/>
						<circle class="st6" cx="-2996.8" cy="510.6" r="67.2"/>
						<circle class="st6" cx="-2996.8" cy="840.6" r="67.2"/>
					</g>
				</g>
				<g>
					<defs>
						<polygon id="SVGID_00000108289256794681438320000001307899610281548711_" points="-2012.2,142.4 -2012.2,142.4 -2276.5,142.4 
							-2276.5,907.8 -2012.2,907.8 						"/>
					</defs>
					<clipPath id="SVGID_00000116942591461134057600000009221470631492202924_">
						<use xlink:href="#SVGID_00000108289256794681438320000001307899610281548711_"  style="overflow:visible;"/>
					</clipPath>
					<g style="clip-path:url(#SVGID_00000116942591461134057600000009221470631492202924_);">
						<circle class="st6" cx="-2209.4" cy="209.5" r="67.2"/>
						
							<ellipse transform="matrix(0.1602 -0.9871 0.9871 0.1602 -2250.3247 -1623.6594)" class="st6" cx="-2079.4" cy="510.6" rx="67.2" ry="67.2"/>
						
							<ellipse transform="matrix(0.1602 -0.9871 0.9871 0.1602 -2576.0635 -1346.5197)" class="st6" cx="-2079.4" cy="840.6" rx="67.2" ry="67.2"/>
					</g>
				</g>
			</g>
		</g>
		<g id="ヨモギ_00000086682128431546873040000007897017046370635180_" class="st31">
			<path class="st9" d="M-2719.7,374.9c40.8-49.7,89.7-72.9,153.3-82.4c63.6-9.5,111.1,3.9,167.4,34.9c18.9,10.4,36.9,23,50.7,39.5
				c28.1,33.8,56.3,93.1,59.5,136.9c4.6,61.7,7,125.6,5.5,187.4c-0.6,27.9-7.1,41.5-18.1,67.2c-14,32.6-42.8,56.5-73.4,74.3
				c-83.7,48.7-188.2,59.8-280.2,29.7c-26.1-8.5-51.8-20.7-70.9-40.4c-8.1-8.6-15.2-18.2-20.9-28.6c-25.2-44.5-26-159.5-23.6-166
				c-10.6-8.4-6.2-19.4-3.9-34c0-8.1,0-16.2,0-26.2c0.2-7.9,2.3-29,2-39.5c2.7-35.6,13.1-70.3,30.4-101.5"/>
			<path class="st10" d="M-2540.1,494c13.1,0.7,28.4,2.7,34.8,14.1c2.8,4.9,3.3,10.6,3.1,16.2c-0.6,15-6.4,29.3-9.9,44
				c-1.7,7-2.8,14.3-6.1,20.7s-9.2,12.1-16.4,12.7c-11.6,1-20-10.6-24.7-21.3c-8.6-19.8-13-41.1-12.9-62.7c0-6.2,0.6-12.8,4.5-17.7
				C-2560.5,491.1-2547,493.6-2540.1,494z"/>
		</g>
	</g>
	<g id="ロゴOutline_00000163047146262587787960000012073835379109152935_">
		<g id="塗りもG_00000162347655339088680510000000732384691693803396_">
			<path class="st36" d="M-2783.4,522.9c0,0-1.4-0.1-1.7,14.3s-0.3,50.9,3.4,62"/>
			<g id="無題_-_2021年9月13日_15.54.49.psdc_00000098187759568407538410000002517946010906536095_">
				<path class="st36" d="M-2788.7,574.2C-2788.6,574.8-2788.9,574.2-2788.7,574.2"/>
				<path class="st36" d="M-2261.5,796.3l0.1,0.3L-2261.5,796.3z"/>
				<path class="st36" d="M-2261.6,796.1v0.1V796.1z"/>
				<path class="st36" d="M-2263.6,788.6L-2263.6,788.6z"/>
				<path class="st36" d="M-2260.4,810.6L-2260.4,810.6L-2260.4,810.6L-2260.4,810.6z"/>
				<path class="st36" d="M-2767.4,619.6L-2767.4,619.6L-2767.4,619.6z"/>
				<path class="st36" d="M-2458.3,491L-2458.3,491L-2458.3,491z"/>
				<path class="st36" d="M-2767.2,637.5c0.2-0.8,0.3-2.9,1.5-2.7c1.1,0.5-0.1,1.8,0,2.7c0,0.4-0.3,0.7-0.8,0.7
					C-2766.8,638.3-2767.2,637.9-2767.2,637.5z"/>
				<path class="st36" d="M-2767,618.8"/>
				<path class="st36" d="M-2766.6,618.1L-2766.6,618.1z"/>
				<path class="st36" d="M-2766.6,618L-2766.6,618L-2766.6,618z"/>
				<path class="st36" d="M-2767.4,619.6"/>
				<path class="st36" d="M-2765.8,617.2L-2765.8,617.2z"/>
				<path class="st36" d="M-2772.9,636.2c-1.1-0.4-0.1-1.7,0.1-2.3c0.2-0.4,0.6-0.5,1-0.3c0.3,0.2,0.5,0.5,0.4,0.9l0,0l0,0
					c-0.1,0.3-0.2,0.6-0.3,0.9C-2771.8,635.7-2772.3,636.4-2772.9,636.2z"/>
				<path class="st36" d="M-2772.1,633.8c-0.7-0.5,1-8.4,1.4-8.9c0.2-0.3,0.6-0.7,1-0.5c0.7,0.2-0.6,8.2-1,8.7
					C-2771.1,633.5-2771.5,634.3-2772.1,633.8z"/>
				<path class="st36" d="M-2773.7,635.8c-0.2-0.2-0.3-0.5-0.2-0.8c0-0.2,0.1-0.3,0.3-0.4c-0.1,0-0.1,0.1-0.1,0.1
					c0.5-1,1.8-0.4,1.3,0.6C-2772.7,635.9-2773.3,636.2-2773.7,635.8z"/>
				<path class="st36" d="M-2787.6,598.4c-0.8-1.5,5.9,23.1,11.5,40.7c-2.4,5.7-4.4,13.9-6,19.8c-11,47.4-0.4,100.5,23.4,142.5
					c26.5,42.4,70.8,71.6,118.9,83.9c4.6,1.3,9.2,2.6,13.9,3.7c-0.9,5.6-1.2,11.3-1.7,17c-0.2,1.3-0.1,2.6,0.2,3.9
					c-0.9,1-1.6,2.3-2,3.6c-13.7,17.8-22.2,39.3-27.2,61.1c-1.5,7.5-2.6,15.2-3.2,22.9c-0.7,5.6,3.3,10.7,8.9,11.5
					c5.4,0.8,11-3.3,11.6-8.8c0.4-7.5,1.3-14.9,2.8-22.2c3.8-16.2,9.4-32.4,18.2-46.6c3.9,13.6,6.7,27.5,8.4,41.5
					c0.5,4.8,0.6,9.7,1.1,14.5c0.2,4.2-0.1,8.6,2,12.3c5.6,9.7,20.5,4.8,19.9-6.2c-2.5-26.4-6.2-53-14.6-78.3
					c-0.8-3.7-1.7-7.5-4.7-9.9c0-0.2,0-0.5-0.1-0.7c0.6-3.5,0.2-7.6,1-11.1c17.2,3.4,34.7,5,52.3,4.7c4,0.2,7.9,0.2,11.9,0.2
					c44.3,0,90.9-9.6,132.3-28.9c0,0.2,0.1,0.5,0.1,0.7c0.5,11.2,0.1,22.5-0.5,33.8c0,0.1,0,0.2,0,0.2c-1.7,1.4-2.9,3.3-3.4,5.4
					c-18.1,22.4-25.3,58.2-28,86.6c0,13,19.3,14.3,21.1,1.4c0.1-6,0.3-18.7,1.3-24.6c3-16.9,9.2-33,18.3-47.5
					c1.9,3.5,3.6,7,5.2,10.7c8.4,18.8,11,46.1,11.5,66.4c4.7,13.8,23.3,8,21.2-6c-0.7-18.6-4.9-44.1-11-61.7
					c-2.5-7.5-6.1-14.6-10.5-21.2c-0.4-2.2-1.4-4.2-3-5.8c-0.5-0.5-1-0.9-1.6-1.3c1.6-5.4-0.2-11.4,0.4-17.8
					c0-6.6-0.4-13.2-0.9-19.8c-0.5-3.3,0.7-6.5-0.6-9.8c30.6-17.5,57.3-40.8,76.5-70.3c3.2-6,5.9-9.8,9.7-16.4
					c5.5-9.4-4.9-21.4-15-17.7c-5.7,1.7-7.8,7.5-10.8,12.1c-3.6,6.2-8.4,11.5-12.3,17.5c-43.7,55.5-113.7,83.9-183.2,87.4
					c-38.2,3.5-76.7-2.3-113.4-12.9c-30-7.9-56.9-24.2-78.9-46c-43.1-42.6-44.8-107.2-48.6-164c0-4.2-0.1-8.4,0-12.6
					c0.3-2.7,3.5-14.7,3.8-17.4c0.3-3.3-1.1-4.2-2.6-3.6h-0.1h-0.1l0,0l0,0l0,0l0,0l0,0h0c-1.1,0.6-1.9,1.6-2.5,2.6
					c-1.2,1.7-2.3,3.6-3.4,5.4l-0.1,0.2c-0.1,0.2-0.3,0.5-0.4,0.7c0,0,0,0.1,0,0.2c-0.1,0.3-1.3,7.7-1.3,7.9
					c-0.2,0.4,2.6-0.3,2.4,0.1c-2.4-13.7,1.2-18.8-0.2-36.8l3.4-55c1.9-33.5,3.8-55.9,21.4-100.5c4.5-11.4,12.4-27.3,21.8-43.7
					c11.4-19.9,20.9-29.4,32.5-41.6c22.7-25.8,48.2-40.7,84.8-50.8c18.6-6.8,56.4-11.9,80.9-11.6c29.7,0.4,58.4,3.6,83.8,14.8
					c26,10.8,46.1,24.5,63.9,41.6c8.8,8.5,16.7,17.3,20.2,21.3c2.4,2.6,7.9,10.6,12.2,16.6c6.2,8.8,9.6,17,13.8,24.4
					c8.1,14.9,16.8,30.2,21.8,59.4c4.5,26.2,10,74.9,8.8,104.3c-4.8,107.7-2.1,139.6-1.2,159.7c1.8,26.5,3.4,29.7,13.2,54.8
					c1.2,2.4,2.6,4.6,4.1,6.8c1.9,2.7,4,5.2,6.2,7.6c1.4,1.4,2.9,2.8,4.5,4c1.1,0.8,2.2,1.5,3.3,2.2c1,0.6,2,1.1,3,1.5
					c0.9,0.3,1.8,0.6,2.7,0.9c0.3,0.1,0.7,0.1,1,0.2h0.2l0,0h0.2l0.3-0.1h0.1c0.9-0.5,1.7-1.2,2.4-1.9c0,0,0.1-0.1,0.1-0.2l0,0l0,0
					l0,0l0,0l0,0l0.4-0.5l0.1-0.2c0-0.6,0.1-1.3,0.1-1.9c0-1.3-0.1-2.6-0.2-3.8c-0.3-2.5-0.8-4.9-1.4-7.3l-0.1-0.2
					c-0.7-2.6-1.4-5.2-2.1-7.8c0,0,0,0,0,0.1c0-0.1-0.1-0.3-0.1-0.4l0,0l0,0c-0.8-2.9-1.4-5.9-1.8-8.8c-0.2-1.1-0.3-2.2-0.4-3.2
					c-1.4-5.3-2.3-10.7-2.9-16.2c-2.7-26.4-3.2-53-4.6-79.5c-4.1-86.6,8.3-170.5-23-253.9c-2.1-6.5-4.6-12.9-7.7-19
					c-3.6-7.9-7.7-15.5-12.2-22.9c-5.9-10.2-12.6-19.9-19.9-29.1c-7.8-9.3-16.3-18.1-25.4-26.2c-11.1-9.6-30.3-27.9-70-44.5
					c-18.1-7.6-63.8-18.6-85.6-17.5c-26.3-1.9-45.7,2.4-59.2,4.4c-14.7,2.1-19.5,4.9-42.9,12.3c-43.6,13.7-70.2,36.1-103.5,74.6
					c-43.1,49.8-59.4,124.8-59.4,124.8s-10.6,50-8,85.3c0,0.3,0.1,0.9,0.2,1.7c0,1.4,0.1,2.7,0.4,4.1c0.2,2.2,0.8,5.3,0.8,5.9
					c0.1,0.3,0.2,0.7,0.3,1l-1.5-9"/>
				<path class="st36" d="M-2522.2,479.7c-22.7-11.2-60.2-2.9-68.5,23.3c-5,12.4-3.1,26.6-1,39.5c4.8,28.1,19.3,58.4,46.9,70
					c11.8,4.8,21.1-1.2,25.9-12.2c8.3-16,14.3-33.1,17.9-50.7C-2495.7,524.7-2496.2,492.8-2522.2,479.7z M-2519.2,536.9
					c-3.2,19.4-10,38.1-20.2,54.9c-24.2-13.9-36.1-51.6-31.9-78.1c0.7-2.9,2.3-5.6,3.6-8.2c1.5-1.6,3.1-3.1,4.8-4.4
					c3.3-1.8,6.7-3.2,10.3-4.1c2.6-0.8,5.6-0.3,8.1-1.6C-2520.5,497-2515.5,516.3-2519.2,536.9L-2519.2,536.9z"/>
			</g>
			<path class="st36" d="M-2788.5,579.1c-0.2-0.7-0.4-1.3-0.5-2"/>
			<path class="st36" d="M-2788.3,580.4c-0.1-0.3-0.1-0.6-0.2-0.9"/>
			<path class="st36" d="M-2789.6,572.6c-0.1-0.3,1.4,8.5,1.4,8.2"/>
			<path class="st36" d="M-2789.5,573.5c0-0.2-0.1-0.4-0.1-0.6"/>
			<path class="st36" d="M-2788.7,566.4c-0.1,0.4-0.1,0.7-0.1,1.1"/>
			<path class="st36" d="M-2832.8,562.3L-2832.8,562.3"/>
			<line class="st36" x1="-2815.7" y1="574.7" x2="-2815.7" y2="574.7"/>
			<circle class="st36" cx="-2646.6" cy="423.9" r="36.8"/>
			<circle class="st36" cx="-2429.9" cy="423.9" r="36.8"/>
			<text transform="matrix(1 0 0 1 -2989.343 1146.9399)" class="st36" style="font-family:'Courier-Bold'; font-size:117.83px;">Sirocco Rocco</text>
			<text transform="matrix(1 0 0 1 -2989.343 1146.9399)" class="st36" style="font-family:'Courier-Bold'; font-size:117.83px;">Sirocco Rocco</text>
		</g>
		<g id="線のみG_00000110453728416923335540000004435376009766678934_">
			<path class="st37" d="M-3050.3,932.3h1027.9c5.5,0,10,4.5,10,10v77.7c0,5.5-4.5,10-10,10h-1027.9c-5.5,0-10-4.5-10-10v-77.7
				C-3060.3,936.8-3055.8,932.3-3050.3,932.3z"/>
			<circle class="st37" cx="-2537.4" cy="75.2" r="67.2"/>
			<g>
				<defs>
					<rect id="SVGID_00000106143679415654917820000005277678561173103287_" x="-3067.9" y="40.3" width="398.6" height="687.8"/>
				</defs>
				<clipPath id="SVGID_00000103243473312689045250000012962751278103790985_">
					<use xlink:href="#SVGID_00000106143679415654917820000005277678561173103287_"  style="overflow:visible;"/>
				</clipPath>
				<g style="clip-path:url(#SVGID_00000103243473312689045250000012962751278103790985_);">
					<circle class="st39" cx="-2724.3" cy="95.3" r="47"/>
					<circle class="st37" cx="-2957.5" cy="353.8" r="47"/>
					<circle class="st37" cx="-3012.9" cy="673.2" r="47"/>
				</g>
				
					<use xlink:href="#SVGID_00000106143679415654917820000005277678561173103287_"  style="overflow:visible;fill:none;stroke:#FFFFFF;stroke-miterlimit:10;"/>
			</g>
			<g>
				<defs>
					<rect id="SVGID_00000042739017941455024150000006504185219696054714_" x="-2412.6" y="40.3" width="398.6" height="687.8"/>
				</defs>
				<clipPath id="SVGID_00000148627262330735488510000003314628466136530579_">
					<use xlink:href="#SVGID_00000042739017941455024150000006504185219696054714_"  style="overflow:visible;"/>
				</clipPath>
				<g style="clip-path:url(#SVGID_00000148627262330735488510000003314628466136530579_);">
					<circle class="st37" cx="-2357.6" cy="95.3" r="47"/>
					<circle class="st37" cx="-2124.5" cy="353.8" r="47"/>
					
						<ellipse transform="matrix(0.1602 -0.9871 0.9871 0.1602 -2402.1057 -1476.9969)" class="st37" cx="-2069.1" cy="673.2" rx="47" ry="47"/>
				</g>
				
					<use xlink:href="#SVGID_00000042739017941455024150000006504185219696054714_"  style="overflow:visible;fill:none;stroke:#FFFFFF;stroke-miterlimit:10;"/>
			</g>
			<g>
				<defs>
					<rect id="SVGID_00000018945495012454586320000013324238772982351252_" x="-3072" y="134.4" width="280.4" height="781.5"/>
				</defs>
				<clipPath id="SVGID_00000051353237138121907000000005041324860807106731_">
					<use xlink:href="#SVGID_00000018945495012454586320000013324238772982351252_"  style="overflow:visible;"/>
				</clipPath>
				<g style="clip-path:url(#SVGID_00000051353237138121907000000005041324860807106731_);">
					<circle class="st37" cx="-2866.8" cy="209.5" r="67.2"/>
					<circle class="st37" cx="-2996.8" cy="510.6" r="67.2"/>
					<circle class="st37" cx="-2996.8" cy="840.6" r="67.2"/>
				</g>
				
					<use xlink:href="#SVGID_00000018945495012454586320000013324238772982351252_"  style="overflow:visible;fill:none;stroke:#FFFFFF;stroke-miterlimit:10;"/>
			</g>
			<g>
				<defs>
					<rect id="SVGID_00000031185431864277185230000009455182275447702937_" x="-2284.5" y="134.4" width="280.3" height="781.5"/>
				</defs>
				<clipPath id="SVGID_00000140006040856213962830000017196715902857670560_">
					<use xlink:href="#SVGID_00000031185431864277185230000009455182275447702937_"  style="overflow:visible;"/>
				</clipPath>
				<g style="clip-path:url(#SVGID_00000140006040856213962830000017196715902857670560_);">
					<circle class="st37" cx="-2209.4" cy="209.5" r="67.2"/>
					
						<ellipse transform="matrix(0.1602 -0.9871 0.9871 0.1602 -2250.3247 -1623.6594)" class="st37" cx="-2079.4" cy="510.6" rx="67.2" ry="67.2"/>
					
						<ellipse transform="matrix(0.1602 -0.9871 0.9871 0.1602 -2576.0635 -1346.5197)" class="st37" cx="-2079.4" cy="840.6" rx="67.2" ry="67.2"/>
				</g>
				
					<use xlink:href="#SVGID_00000031185431864277185230000009455182275447702937_"  style="overflow:visible;fill:none;stroke:#FFFFFF;stroke-miterlimit:10;"/>
			</g>
		</g>
	</g>
</g>
</svg>
